<svg width="271" height="60" viewBox="0 0 271 60" fill="none" xmlns="http://www.w3.org/2000/svg">
<path fill-rule="evenodd" clip-rule="evenodd" d="M60.5269 39.2307H10.6304C9.72779 39.2307 9.00171 39.9202 9.00171 40.7662C9.00171 41.6188 9.73112 42.3083 10.6304 42.3083H60.5269C61.4295 42.3083 62.1589 41.6188 62.1589 40.7662C62.1589 39.9202 61.4262 39.2307 60.5269 39.2307Z" fill="black"/>
<path fill-rule="evenodd" clip-rule="evenodd" d="M35.6004 13.0018C22.8141 13.0018 12.4524 23.0204 12.4524 35.3772H58.7485C58.7518 23.0204 48.3835 13.0018 35.6004 13.0018V13.0018Z" fill="#00993E"/>
<path fill-rule="evenodd" clip-rule="evenodd" d="M32.3131 9.00177H38.8712V15.5598H32.3131V9.00177Z" fill="black"/>
<path d="M74.9415 42.0018V16.9769H87.2199V19.6414L76.5978 19.5334L78.0021 18.1651L77.7501 28.6071L76.4178 28.031L86.1037 27.995V30.5515H76.4178L77.7861 30.0474L77.9301 42.0018H74.9415ZM98.8311 42.4699C96.8387 42.4699 95.2664 42.0258 94.1141 41.1376C92.9859 40.2494 92.1818 38.9892 91.7017 37.3569C91.2216 35.7245 90.9815 33.7802 90.9815 31.5237C90.9815 29.2673 91.2216 27.3229 91.7017 25.6906C92.1818 24.0582 92.9859 22.798 94.1141 21.9098C95.2664 21.0216 96.8387 20.5776 98.8311 20.5776C100.823 20.5776 102.384 21.0216 103.512 21.9098C104.664 22.798 105.48 24.0582 105.96 25.6906C106.441 27.3229 106.681 29.2673 106.681 31.5237C106.681 33.7802 106.441 35.7245 105.96 37.3569C105.48 38.9892 104.664 40.2494 103.512 41.1376C102.384 42.0258 100.823 42.4699 98.8311 42.4699ZM98.8311 39.8773C99.7433 39.8773 100.499 39.7693 101.1 39.5533C101.724 39.3372 102.216 38.9412 102.576 38.3651C102.96 37.7889 103.224 36.9488 103.368 35.8446C103.536 34.7403 103.62 33.3001 103.62 31.5237C103.62 29.7474 103.536 28.3071 103.368 27.2029C103.224 26.0986 102.96 25.2585 102.576 24.6824C102.216 24.0822 101.724 23.6862 101.1 23.4941C100.499 23.2781 99.7433 23.1701 98.8311 23.1701C97.9189 23.1701 97.1507 23.2781 96.5266 23.4941C95.9265 23.6862 95.4344 24.0822 95.0503 24.6824C94.6903 25.2585 94.4262 26.0986 94.2582 27.2029C94.0901 28.3071 94.0061 29.7474 94.0061 31.5237C94.0061 33.3001 94.0901 34.7403 94.2582 35.8446C94.4262 36.9488 94.6903 37.7889 95.0503 38.3651C95.4344 38.9412 95.9265 39.3372 96.5266 39.5533C97.1507 39.7693 97.9189 39.8773 98.8311 39.8773ZM119.577 42.4699C117.585 42.4699 116.013 42.0258 114.86 41.1376C113.732 40.2494 112.928 38.9892 112.448 37.3569C111.968 35.7245 111.728 33.7802 111.728 31.5237C111.728 29.2673 111.968 27.3229 112.448 25.6906C112.928 24.0582 113.732 22.798 114.86 21.9098C116.013 21.0216 117.585 20.5776 119.577 20.5776C121.57 20.5776 123.13 21.0216 124.258 21.9098C125.41 22.798 126.227 24.0582 126.707 25.6906C127.187 27.3229 127.427 29.2673 127.427 31.5237C127.427 33.7802 127.187 35.7245 126.707 37.3569C126.227 38.9892 125.41 40.2494 124.258 41.1376C123.13 42.0258 121.57 42.4699 119.577 42.4699ZM119.577 39.8773C120.49 39.8773 121.246 39.7693 121.846 39.5533C122.47 39.3372 122.962 38.9412 123.322 38.3651C123.706 37.7889 123.97 36.9488 124.114 35.8446C124.282 34.7403 124.366 33.3001 124.366 31.5237C124.366 29.7474 124.282 28.3071 124.114 27.2029C123.97 26.0986 123.706 25.2585 123.322 24.6824C122.962 24.0822 122.47 23.6862 121.846 23.4941C121.246 23.2781 120.49 23.1701 119.577 23.1701C118.665 23.1701 117.897 23.2781 117.273 23.4941C116.673 23.6862 116.181 24.0822 115.797 24.6824C115.437 25.2585 115.172 26.0986 115.004 27.2029C114.836 28.3071 114.752 29.7474 114.752 31.5237C114.752 33.3001 114.836 34.7403 115.004 35.8446C115.172 36.9488 115.437 37.7889 115.797 38.3651C116.181 38.9412 116.673 39.3372 117.273 39.5533C117.897 39.7693 118.665 39.8773 119.577 39.8773ZM139.099 42.4699C137.803 42.4699 136.651 42.0978 135.643 41.3536C134.658 40.6095 133.878 39.4573 133.302 37.897C132.75 36.3367 132.474 34.3443 132.474 31.9198C132.474 29.5913 132.678 27.695 133.086 26.2307C133.518 24.7424 134.094 23.5902 134.815 22.774C135.535 21.9578 136.327 21.3937 137.191 21.0817C138.079 20.7456 138.991 20.5776 139.928 20.5776C140.72 20.5776 141.416 20.6256 142.016 20.7216C142.616 20.8176 143.132 20.9256 143.564 21.0457C144.02 21.1657 144.38 21.2857 144.644 21.4057V14.8884H147.633V42.0018H145.653L145.257 39.8413H145.077C144.764 40.0814 144.332 40.4175 143.78 40.8495C143.228 41.2576 142.556 41.6297 141.764 41.9658C140.996 42.3018 140.108 42.4699 139.099 42.4699ZM139.279 39.8053C139.759 39.8053 140.252 39.7453 140.756 39.6253C141.26 39.4813 141.752 39.3132 142.232 39.1212C142.736 38.9292 143.192 38.7251 143.6 38.5091C144.032 38.293 144.38 38.101 144.644 37.933V24.1783C144.356 24.0582 143.948 23.9262 143.42 23.7822C142.916 23.6382 142.34 23.5181 141.692 23.4221C141.044 23.3021 140.36 23.2421 139.639 23.2421C138.295 23.2421 137.383 23.5301 136.903 24.1063C136.711 24.3703 136.507 24.7904 136.291 25.3665C136.099 25.9426 135.931 26.7708 135.787 27.851C135.667 28.9072 135.607 30.3115 135.607 32.0638C135.607 34.0322 135.703 35.5205 135.895 36.5287C136.111 37.5369 136.351 38.233 136.615 38.6171C136.879 39.0012 137.083 39.2532 137.227 39.3732C137.419 39.5413 137.695 39.6613 138.055 39.7333C138.415 39.7813 138.823 39.8053 139.279 39.8053Z" fill="#7EB685"/>
<path d="M168.384 42.5059C167.399 42.5059 166.451 42.3858 165.539 42.1458C164.627 41.9298 163.811 41.6657 163.09 41.3536C162.394 41.0416 161.842 40.7775 161.434 40.5615C161.026 40.3214 160.822 40.2014 160.822 40.2014C160.822 40.2014 160.87 40.0814 160.966 39.8413C161.086 39.5773 161.218 39.2892 161.362 38.9772C161.506 38.6411 161.626 38.353 161.722 38.113C161.842 37.873 161.902 37.7529 161.902 37.7529C161.902 37.7529 162.094 37.861 162.478 38.077C162.886 38.269 163.427 38.4971 164.099 38.7611C164.771 39.0012 165.539 39.2292 166.403 39.4453C167.267 39.6373 168.167 39.7333 169.104 39.7333C169.704 39.7333 170.172 39.6853 170.508 39.5893C170.868 39.4693 171.12 39.3612 171.264 39.2652C171.744 38.9292 172.116 38.4731 172.38 37.897C172.644 37.2968 172.776 36.5287 172.776 35.5925C172.776 34.6803 172.584 33.9242 172.2 33.3241C171.816 32.7239 171.3 32.2198 170.652 31.8118C170.028 31.4037 169.344 31.0436 168.6 30.7316C167.639 30.3235 166.739 29.9154 165.899 29.5073C165.059 29.0992 164.315 28.6311 163.667 28.103C163.018 27.5749 162.514 26.9148 162.154 26.1226C161.794 25.3065 161.614 24.2983 161.614 23.0981C161.614 21.8498 161.89 20.7336 162.442 19.7494C162.994 18.7412 163.823 17.949 164.927 17.3729C166.031 16.7728 167.399 16.4728 169.032 16.4728C169.824 16.4728 170.568 16.5208 171.264 16.6168C171.96 16.6888 172.584 16.7728 173.136 16.8688C173.689 16.9649 174.121 17.0609 174.433 17.1569C174.745 17.2289 174.901 17.2649 174.901 17.2649L174.397 19.8574C174.397 19.8574 174.229 19.8334 173.893 19.7854C173.557 19.7134 173.1 19.6294 172.524 19.5334C171.948 19.4373 171.3 19.3653 170.58 19.3173C169.86 19.2453 169.128 19.2093 168.384 19.2093C167.783 19.2093 167.303 19.2453 166.943 19.3173C166.607 19.3893 166.307 19.5093 166.043 19.6774C165.731 19.8454 165.431 20.1935 165.143 20.7216C164.879 21.2257 164.747 21.9218 164.747 22.81C164.747 23.7942 164.999 24.5983 165.503 25.2225C166.007 25.8466 166.667 26.3627 167.483 26.7708C168.299 27.1549 169.164 27.5389 170.076 27.923C170.796 28.2111 171.504 28.5471 172.2 28.9312C172.896 29.2913 173.521 29.7354 174.073 30.2635C174.625 30.7916 175.069 31.4637 175.405 32.2799C175.741 33.072 175.909 34.0442 175.909 35.1964C175.909 36.6607 175.585 37.945 174.937 39.0492C174.313 40.1294 173.437 40.9816 172.308 41.6057C171.18 42.2058 169.872 42.5059 168.384 42.5059ZM185.514 42.4699C184.409 42.4699 183.425 42.2178 182.561 41.7137C181.721 41.1856 181.061 40.4295 180.581 39.4453C180.101 38.4371 179.86 37.2248 179.86 35.8086C179.86 34.1042 180.197 32.772 180.869 31.8118C181.565 30.8276 182.537 30.1314 183.785 29.7234C185.033 29.3153 186.486 29.1112 188.142 29.1112H191.959C191.959 27.911 191.923 26.8668 191.851 25.9786C191.803 25.0664 191.611 24.3943 191.275 23.9622C191.035 23.6262 190.699 23.4101 190.267 23.3141C189.858 23.2181 189.426 23.1701 188.97 23.1701C188.034 23.1701 187.11 23.2661 186.198 23.4581C185.31 23.6262 184.493 23.8302 183.749 24.0702C183.029 24.3103 182.453 24.5263 182.021 24.7184C181.589 24.8864 181.373 24.9704 181.373 24.9704L180.329 22.63C180.329 22.63 180.557 22.5339 181.013 22.3419C181.469 22.1259 182.081 21.8858 182.849 21.6218C183.617 21.3337 184.469 21.0937 185.406 20.9016C186.366 20.6856 187.35 20.5776 188.358 20.5776C189.99 20.5776 191.287 20.9016 192.247 21.5498C193.207 22.1739 193.891 23.062 194.299 24.2143C194.731 25.3425 194.947 26.6748 194.947 28.2111V42.0018H193.003L192.571 39.8053H192.355C192.115 39.9734 191.767 40.2134 191.311 40.5255C190.879 40.8135 190.363 41.1136 189.762 41.4257C189.186 41.7137 188.538 41.9538 187.818 42.1458C187.098 42.3618 186.33 42.4699 185.514 42.4699ZM186.018 39.8413C186.882 39.8413 187.698 39.7213 188.466 39.4813C189.258 39.2172 189.954 38.9292 190.555 38.6171C191.179 38.305 191.647 38.053 191.959 37.861V31.8838C191.647 31.8358 191.179 31.7878 190.555 31.7398C189.93 31.6677 189.114 31.6317 188.106 31.6317C185.874 31.6317 184.493 31.8598 183.965 32.3159C183.653 32.5559 183.413 32.988 183.245 33.6121C183.077 34.2122 182.993 34.9444 182.993 35.8086C182.993 37.2248 183.221 38.257 183.677 38.9052C184.157 39.5293 184.937 39.8413 186.018 39.8413ZM205.006 42.0018L198.92 21.0457H202.125L206.842 39.4453H207.058L211.739 21.0457H214.943L208.894 42.0018H205.006ZM225.84 42.4699C223.848 42.4699 222.276 42.0258 221.123 41.1376C219.995 40.2494 219.191 38.9892 218.711 37.3569C218.231 35.7245 217.991 33.7802 217.991 31.5237C217.991 29.2673 218.231 27.3229 218.711 25.6906C219.191 24.0582 219.995 22.798 221.123 21.9098C222.276 21.0216 223.848 20.5776 225.84 20.5776C227.833 20.5776 229.393 21.0216 230.521 21.9098C231.674 22.798 232.49 24.0582 232.97 25.6906C233.45 27.3229 233.69 29.2673 233.69 31.5237C233.69 33.7802 233.45 35.7245 232.97 37.3569C232.49 38.9892 231.674 40.2494 230.521 41.1376C229.393 42.0258 227.833 42.4699 225.84 42.4699ZM225.84 39.8773C226.753 39.8773 227.509 39.7693 228.109 39.5533C228.733 39.3372 229.225 38.9412 229.585 38.3651C229.969 37.7889 230.233 36.9488 230.377 35.8446C230.545 34.7403 230.629 33.3001 230.629 31.5237C230.629 29.7474 230.545 28.3071 230.377 27.2029C230.233 26.0986 229.969 25.2585 229.585 24.6824C229.225 24.0822 228.733 23.6862 228.109 23.4941C227.509 23.2781 226.753 23.1701 225.84 23.1701C224.928 23.1701 224.16 23.2781 223.536 23.4941C222.936 23.6862 222.444 24.0822 222.06 24.6824C221.7 25.2585 221.436 26.0986 221.267 27.2029C221.099 28.3071 221.015 29.7474 221.015 31.5237C221.015 33.3001 221.099 34.7403 221.267 35.8446C221.436 36.9488 221.7 37.7889 222.06 38.3651C222.444 38.9412 222.936 39.3372 223.536 39.5533C224.16 39.7693 224.928 39.8773 225.84 39.8773ZM239.853 42.0018V21.0457H241.762L242.158 23.1701H242.374C242.374 23.1701 242.554 23.038 242.914 22.774C243.298 22.5099 243.79 22.2099 244.39 21.8738C244.99 21.5377 245.626 21.2377 246.299 20.9736C246.995 20.7096 247.643 20.5776 248.243 20.5776C248.603 20.5776 248.939 20.6136 249.251 20.6856C249.563 20.7336 249.719 20.7576 249.719 20.7576L249.467 23.6382C249.467 23.6382 249.311 23.6262 248.999 23.6022C248.687 23.5781 248.399 23.5661 248.135 23.5661C247.463 23.5661 246.779 23.6622 246.083 23.8542C245.41 24.0462 244.786 24.2863 244.21 24.5743C243.634 24.8624 243.178 25.1385 242.842 25.4025V42.0018H239.853Z" fill="black"/>
</svg>
